# xmcd
#
# Track frame offsets:
# 150
# 16559
# 32284
# 48237
# 65019
# 79321
# 96225
# 112640
# 135461
# 152846
# 169932
# 183877
# 198349
# 214912
# 230802
# 245716
# 262872
# 281952
# 300286
#
# Disc length: 4218 seconds
#
#
# Revision: 0
# Processed by: cddbd v1.5.1PL2 Copyright (c) Steve Scherf et al.
# Submitted via: FreeRIP 2.945 
#
DISCID=f9107813
DTITLE=Dance 2006 - Summer Session [CD2)
DYEAR=2006
DGENRE=
TTITLE0=The Shapeshifters - Incredible
TTITLE1=Kyau vs. Albert - Walk Down
TTITLE2=DJ Tiësto pr. Allure - The Loves We Lost
TTITLE3=Jean Claude Ades - Some Day
TTITLE4=Simmons and Christopher - Just The Way
TTITLE5=Fragma And Kristy Hawkshaw - Radio Waves
TTITLE6=Easyjetter ft. LNG - I Wanna Dance With Somebody
TTITLE7=Sweetbox - Booyah (Here We Go 2006)
TTITLE8=Jasmin Paan - Only One (You Make Me Feel Good)
TTITLE9=Deep Dish ft. Stevie Nicks - Dreams
TTITLE10=In-Grid - Oui
TTITLE11=Blog 27 - Uh La La La
TTITLE12=Rob Adams - People From Ibiza
TTITLE13=Housetrooper - Rock The Night
TTITLE14=Aycan - Devil In Disguise
TTITLE15=Joe Face - Maniac
TTITLE16=Dennis Christopher - Soulshakin'
TTITLE17=Rachael Starr - Till There Was You
TTITLE18=She S. Sunshine ft. Jomar - Everyday
EXTD=
EXTT0=
EXTT1=
EXTT2=
EXTT3=
EXTT4=
EXTT5=
EXTT6=
EXTT7=
EXTT8=
EXTT9=
EXTT10=
EXTT11=
EXTT12=
EXTT13=
EXTT14=
EXTT15=
EXTT16=
EXTT17=
EXTT18=
PLAYORDER=
